<svg xmlns="http://www.w3.org/2000/svg" viewBox="0 0 278.16 263.64"><defs><style>.cls-1{fill:#fff;}</style></defs><g id="Layer_1" data-name="Layer 1"><path class="cls-1" d="M22,272H2a2,2,0,0,1,0-4H22a2,2,0,0,1,0,4Z" transform="translate(0 -8.36)"/><path class="cls-1" d="M248,268H216V232H171V191H161V134H151V47H141V36h-6V24H109V13h-4V24H99V36H95V268H45a2,2,0,0,0,0,4H248a2,2,0,0,0,0-4ZM99,49.44,107.17,47H137v5H106.83L99,55.12Zm0,7.84L107.21,54H137v5H106.83L99,62.12Zm0,7L107.21,61H137v5H106.83L99,69.12Zm0,7L107.21,68H137v5H106.83L99,76.12Zm0,7L107.21,75H137v5H106.83L99,83.12Zm0,7L107.21,82H137v5H106.83L99,90.12Zm0,7L107.21,89H137v5H106.83L99,97.12Zm0,7L107.21,96H137v5H106.83L99,104.12Zm0,7,8.19-3.28H137v5H106.83L99,111.12Zm0,7,8.19-3.28H137v5H106.83L99,118.12Zm0,7,8.19-3.28H137v5H106.83L99,125.12Zm0,7,8.19-3.28H137v5H106.83L99,132.12Zm0,7,8.19-3.28H137v5H106.83L99,139.12Zm0,7,8.19-3.28H147v5H106.83L99,146.12Zm0,7,8.19-3.28H147v5H106.83L99,153.12Zm0,7,8.19-3.28H147v5H106.83L99,160.12Zm0,7,8.19-3.28H147v5H106.83L99,167.12Zm0,7,8.19-3.28H147v5H106.83L99,174.12Zm0,7,8.19-3.28H147v5H106.83L99,181.12Zm0,7,8.19-3.28H147v5H106.83L99,188.12Zm0,7,8.19-3.28H147v5H106.83L99,195.12Zm0,7,8.19-3.28H147v1h10v4H106.83L99,202.12Zm0,7,8.19-3.28H157v5H106.83L99,209.12Zm0,7,8.19-3.28H157v5H106.83L99,216.12Zm0,7,8.19-3.28H157v5H106.83L99,223.12Zm0,7,8.19-3.28H157v5H106.83L99,230.12Zm0,14,8.19-3.28H167v5H106.83L99,244.12Zm0,7,8.19-3.28H167v5H106.83L99,251.12ZM212,255H171v-5h41Zm0-7H171v-5h41ZM99,253.28l8.19-3.28H167v5H106.83L99,258.12Zm0,7,8.19-3.28H167v5H106.83L99,265.12ZM171,257h41v5H171Zm41-21v5H171v-5Zm-45-2H106.83L99,237.12v-4.84l8.19-3.28H157v3h10Zm0-39v33h-6V195Zm-10-57v53h-6V138ZM147,51v83h-6V51ZM103,33h4V31h-4V28h28v3H112v2h19v3H103Zm32,7h2v5H107l-8,2.37V40ZM99,268v-.72l8.19-3.28H167v4Zm72,0v-4h41v4Z" transform="translate(0 -8.36)"/><rect class="cls-1" x="143.02" y="43.64" width="2" height="2"/><rect class="cls-1" x="143.02" y="50.64" width="2" height="2"/><rect class="cls-1" x="143.02" y="57.64" width="2" height="2"/><rect class="cls-1" x="143.02" y="64.64" width="2" height="2"/><rect class="cls-1" x="143.02" y="71.64" width="2" height="2"/><rect class="cls-1" x="143.02" y="78.64" width="2" height="2"/><rect class="cls-1" x="143.02" y="85.64" width="2" height="2"/><rect class="cls-1" x="143.02" y="92.64" width="2" height="2"/><rect class="cls-1" x="143.02" y="99.64" width="2" height="2"/><rect class="cls-1" x="143.02" y="106.64" width="2" height="2"/><rect class="cls-1" x="143.02" y="113.64" width="2" height="2"/><rect class="cls-1" x="143.02" y="120.64" width="2" height="2"/><rect class="cls-1" x="153.02" y="134.64" width="2" height="2"/><rect class="cls-1" x="153.02" y="141.64" width="2" height="2"/><rect class="cls-1" x="153.02" y="148.64" width="2" height="2"/><rect class="cls-1" x="153.02" y="155.64" width="2" height="2"/><rect class="cls-1" x="153.02" y="162.64" width="2" height="2"/><rect class="cls-1" x="153.02" y="169.64" width="2" height="2"/><rect class="cls-1" x="153.02" y="176.64" width="2" height="2"/><rect class="cls-1" x="163.02" y="190.64" width="2" height="2"/><rect class="cls-1" x="163.02" y="197.64" width="2" height="2"/><rect class="cls-1" x="163.02" y="204.64" width="2" height="2"/><rect class="cls-1" x="163.02" y="211.64" width="2" height="2"/></g><g id="Layer_3" data-name="Layer 3"><path class="cls-1" d="M193.31,52.1h-.19a2,2,0,0,1-1.8-2.18,12.48,12.48,0,0,1,13.41-11.28,19,19,0,0,1,34.4-2.37,12.8,12.8,0,0,1,15.72,2.24,11.37,11.37,0,0,1,3.61-.58A11.52,11.52,0,0,1,269.89,48.1h6.27a2,2,0,0,1,0,4H265.78l.16-2.15c0-.2,0-.36,0-.53a7.51,7.51,0,0,0-7.51-7.5,7.39,7.39,0,0,0-3.31.78l-1.49.73-1-1.33a8.82,8.82,0,0,0-13-1.32l-2.17,1.94-1-2.71A15,15,0,0,0,208,41.39l-.5,1.84-1.87-.42a8.49,8.49,0,0,0-10.37,7.48A2,2,0,0,1,193.31,52.1Z" transform="translate(0 -8.36)"/><path class="cls-1" d="M25.2,21.34H13.77a2,2,0,0,1,0-4h7.8a5.59,5.59,0,0,1,3.9-3.43,7.39,7.39,0,0,1,14.27-.16h4.11a2,2,0,0,1,0,4H36v-2a3.39,3.39,0,0,0-6.78-.06v2.36L27,17.77a1.61,1.61,0,0,0-1.79,1.57Z" transform="translate(0 -8.36)"/><path class="cls-1" d="M57.38,17.75H52.44a2,2,0,0,1,0-4h4.94a2,2,0,0,1,0,4Z" transform="translate(0 -8.36)"/><path class="cls-1" d="M75.91,269.06a20.89,20.89,0,0,0-9.28-5.56V246.81a4.28,4.28,0,0,0,3-2.43,97.35,97.35,0,0,1,18.77,7.52.62.62,0,0,0,.19.07,1,1,0,0,0,1.12-.34,1.09,1.09,0,0,0,.13-1.2,20.11,20.11,0,0,1-.78-1.92,33.91,33.91,0,0,0-1.67-3.89.85.85,0,0,0-1.51.8,31.11,31.11,0,0,1,1.59,3.69c.06.16.11.32.17.47A107.45,107.45,0,0,0,70,242.72v-.07a4.23,4.23,0,0,0-.52-2c4.2-.65,8.79-.68,11.07,0A7.53,7.53,0,0,1,84,242.65a.87.87,0,0,0,.61.26.82.82,0,0,0,.59-.24.84.84,0,0,0,0-1.2A9.14,9.14,0,0,0,81.05,239c-2.35-.68-6.67-.72-10.87-.16a100.41,100.41,0,0,1,19.6-5.34.65.65,0,0,0,.19,0,1.05,1.05,0,0,0,.67-.84,1.15,1.15,0,0,0-.46-1.07l-.45-.34c-2.3-1.76-7.67-5.88-13.65-3.6-2.29.87-5.7,3.41-8.68,6.34a112,112,0,0,1,6.8-9.71.85.85,0,1,0-1.34-1,115.49,115.49,0,0,0-8.44,12.37,4.51,4.51,0,0,0-.94-.38c.3-4.74,1.66-10.32,3.12-12.69,2.6-4.22,7.72-4.59,10.75-4.62-.55.59-1.29,1.41-2.17,2.46a.84.84,0,0,0,.1,1.2.83.83,0,0,0,1.19-.1c1.9-2.25,3.12-3.46,3.14-3.47l.12-.16a1,1,0,0,0,0-1.08,1.16,1.16,0,0,0-1-.56h-.59c-2.89,0-9.66,0-13,5.44-1.17,1.9-2.25,5.48-2.88,9.24a28.73,28.73,0,0,0-2.87-9.24c-3.36-5.44-10.13-5.44-13-5.44h-.57a1.14,1.14,0,0,0-1,.56,1,1,0,0,0,0,1.08,1,1,0,0,0,.12.16,97.15,97.15,0,0,1,12.2,16c-3-2.93-6.36-5.45-8.68-6.33-6-2.28-11.34,1.84-13.64,3.6l-.45.34a1.18,1.18,0,0,0-.47,1.07,1.08,1.08,0,0,0,.68.84.65.65,0,0,0,.19,0s1.47.2,3.94.72a.85.85,0,1,0,.35-1.67c-1-.22-1.89-.38-2.55-.49,2.43-1.82,6.71-4.63,11.35-2.86,2.74,1,7.39,4.85,10.54,8.59a3.58,3.58,0,0,0-.2.73,115.61,115.61,0,0,0-15.53-5.13.85.85,0,1,0-.42,1.65,112.8,112.8,0,0,1,12.12,3.8c-4.22-.56-8.52-.52-10.87.16-6.14,1.77-8,8.3-8.73,11.08-.06.21-.11.39-.15.55a1.13,1.13,0,0,0,.27,1.13,1,1,0,0,0,.73.31,1.12,1.12,0,0,0,.31-.05.62.62,0,0,0,.19-.07,97.13,97.13,0,0,1,19-7.57,4.27,4.27,0,0,0,3,2.48V263.5a20.89,20.89,0,0,0-9.28,5.56m13.54-23.87a4.22,4.22,0,0,0,2.55,1.62v2.7H59.82v-2.7A4.27,4.27,0,0,0,62.38,245.19Zm2.55,8.91H59.82v-2.89h5.11Zm-5.11,1.7h5.11v2.89H59.82Zm6-10.6a2.55,2.55,0,1,1,2.55-2.55A2.55,2.55,0,0,1,65.78,245.2Zm-5.85-6.69a2.56,2.56,0,0,1,4.89,0,4.24,4.24,0,0,0-2.44,1.59A4.3,4.3,0,0,0,59.93,238.51Zm16.76-9.36c4.64-1.77,8.93,1,11.35,2.86a110.24,110.24,0,0,0-21.5,6.38,3.91,3.91,0,0,0-.26-.82C69.42,233.9,74,230.17,76.69,229.15ZM58,222.45c1.47,2.38,2.83,8,3.12,12.75a4.22,4.22,0,0,0-.89.41,109.3,109.3,0,0,0-13-17.78C50.23,217.86,55.34,218.23,58,222.45ZM36.63,249.7c.84-2.91,2.57-7.74,7.34-9.12,2.31-.67,7-.63,11.26.06a4.25,4.25,0,0,0-.51,2h0a108.05,108.05,0,0,0-18.09,7Zm19.79-7A2.56,2.56,0,1,1,59,245.2,2.55,2.55,0,0,1,56.42,242.65Zm3.4,17.74h5.11v2.75a16.42,16.42,0,0,0-5.11,0Zm2.56,4.25a17.54,17.54,0,0,1,11,4.42H51.33A17.52,17.52,0,0,1,62.38,264.64Z" transform="translate(0 -8.36)"/></g></svg>