<svg id="Layer_1" data-name="Layer 1" xmlns="http://www.w3.org/2000/svg" viewBox="0 0 744 744"><defs><style>.cls-1{fill:#fff;}.cls-2{fill:#35bdf6;}</style></defs><polygon class="cls-1" points="469.73 324.86 372.96 435.59 272.12 324.86 244.46 324.62 372.96 473.39 501.45 324.62 469.73 324.86"/><path class="cls-2" d="M372,48.84c178.5.11,323.16,144.9,323,323.4A323.2,323.2,0,0,1,497.76,669.7c-164.43,69.46-354-7.53-423.5-172s7.47-354,172-423.51A321.18,321.18,0,0,1,372,48.84M372,0C166.53,0,0,166.53,0,372S166.53,744,372,744,744,577.47,744,372,577.37,0,372,0Z"/></svg>