<svg id="Layer_1" data-name="Layer 1" xmlns="http://www.w3.org/2000/svg" viewBox="0 0 1073.23 1080"><defs><style>.cls-1{fill:#36bef6;}.cls-2{fill:#fff;}</style></defs><path class="cls-1" d="M536.61,0C240.25,0,0,241.77,0,540s240.25,540,536.61,540,536.62-241.77,536.62-540S833,0,536.61,0Zm0,1009C279.2,1009,70.53,799,70.53,540S279.2,71,536.61,71,1002.7,281,1002.7,540,794,1009,536.61,1009Z"/><path class="cls-2" d="M465.13,691.57a14.66,14.66,0,0,1-7-1.76,14.86,14.86,0,0,1-7.77-13.07V357.06A14.87,14.87,0,0,1,458.16,344a14.69,14.69,0,0,1,15.13.72L712.52,504.53a14.9,14.9,0,0,1,0,24.73L473.29,689.1A14.71,14.71,0,0,1,465.13,691.57Zm14.74-306.86V649.08L677.72,516.9Z"/></svg>